<?xml version="1.0" encoding="utf-8"?>
<!-- Generator: Adobe Illustrator 15.0.0, SVG Export Plug-In . SVG Version: 6.00 Build 0)  -->
<!DOCTYPE svg PUBLIC "-//W3C//DTD SVG 1.1//EN" "http://www.w3.org/Graphics/SVG/1.1/DTD/svg11.dtd">
<svg version="1.1" id="Layer_1" xmlns="http://www.w3.org/2000/svg" xmlns:xlink="http://www.w3.org/1999/xlink" x="0px" y="0px"
	 width="388.625px" height="74.855px" viewBox="0 0 388.625 74.855" enable-background="new 0 0 388.625 74.855"
	 xml:space="preserve">
<g>
	<g enable-background="new    ">
		<path fill="#242424" d="M34.481,18.615c-0.047,0.085-0.14,0.158-0.28,0.221c-0.14,0.063-0.234,0.096-0.28,0.096h-0.14h-0.07v0.062
			h-0.14h-0.07c0,0.042-0.024,0.042-0.07,0h-0.14c-0.559,0.126-2.051,0.168-4.474,0.126l-0.07,0.063
			c-0.094,0-0.164-0.021-0.21-0.063H28.19h-0.21c-0.047,0.042-0.117,0.063-0.209,0.063c-0.14,0-0.234-0.021-0.28-0.063h-0.35
			c-0.14-0.041-0.349-0.062-0.629-0.062c-0.327,0-0.536-0.021-0.629-0.063c-0.14,0-0.257-0.021-0.35-0.062h-0.35
			c-0.327,0-0.606,0.021-0.839,0.062c0.093,0.927,0.14,2.423,0.14,4.487l-0.07,1.644c0,0.338,0.023,0.632,0.07,0.885v0.822v2.212
			c0,1.224,0.023,1.875,0.07,1.959v0.19l-0.07,0.252l0.14,0.506c0.046,0.464,0.07,1.644,0.07,3.54v2.591l-0.209,3.099
			c0,0.085,0.045,0.295,0.14,0.633l0.14,0.188c0.046,0.211,0.07,0.674,0.07,1.392l-0.14,0.379c-0.047,0.042-0.07,0.168-0.07,0.379
			l0.07,0.188v0.695v1.012l-0.14,0.442h-0.14c0.093,0.169,0.14,0.464,0.14,0.885c0,0.675-0.024,1.159-0.07,1.454
			c0,0.252-0.012,0.56-0.035,0.916c-0.024,0.358-0.012,0.79,0.035,1.296v0.253v0.379c0,0.085,0.023,0.148,0.07,0.189v0.253v0.38
			l-0.07,0.379v0.506c0,0.464,0.023,0.821,0.07,1.074c0,0.127,0.023,0.232,0.07,0.316c0,0.211,0.07,0.44,0.209,0.694l0.07,0.252
			c0.046,0.507-0.024,1.412-0.209,2.72c-0.14,0.885-0.234,1.349-0.28,1.391c-0.094,0.252-0.14,0.4-0.14,0.441
			c-0.094,0.086-0.327,0.127-0.699,0.127l-0.21,0.315l-0.14,0.315c-0.187,0-0.548-0.054-1.083-0.157
			c-0.536-0.105-0.944-0.223-1.223-0.348c-0.094-0.042-0.234-0.254-0.419-0.633l-0.21-0.507v-0.188v-0.127h-0.07
			c-0.047,0-0.07-0.041-0.07-0.126l0.07-0.189h-0.07h-0.07v-0.188v-0.126c-0.28-1.35-0.443-3.939-0.489-7.775l-0.07-0.126
			c0-0.21,0.023-0.38,0.07-0.505c0-0.211-0.024-0.358-0.07-0.443v-0.379c-0.047-0.127-0.07-0.272-0.07-0.441
			c0-0.168,0.023-0.316,0.07-0.442c0.046-0.127,0.07-0.273,0.07-0.443c0-0.799,0.046-1.537,0.14-2.211l0.07-0.506v-0.569
			c0-0.589-0.024-1.115-0.07-1.579l-0.07-1.2l-0.07-1.266c-0.047-0.464-0.07-0.988-0.07-1.58c0-0.632,0.023-1.179,0.07-1.644v-1.391
			v-0.379c-0.047-0.042-0.07-0.126-0.07-0.253c0-0.168,0.023-0.294,0.07-0.379V34.67v-0.441v-0.316
			c-0.047-0.042-0.07-0.104-0.07-0.189c0-0.083,0.023-0.147,0.07-0.189v-0.063c0.046-0.421,0.07-0.947,0.07-1.579h-0.07h-0.07
			l0.14-0.443c0.046-0.463,0.058-1,0.035-1.611c-0.024-0.609-0.035-1.253-0.035-1.928c-0.047-0.252-0.07-0.716-0.07-1.39v-0.822
			v-0.695l-0.07-0.126c0-0.126,0.023-0.23,0.07-0.315V24.37c0-0.759,0.07-1.728,0.209-2.908l0.07-0.694v-0.822l0.07-0.885h-0.14
			h-0.209c-0.094,0-0.164-0.021-0.21-0.063h-0.14c-0.187,0-0.35,0.021-0.489,0.063h-0.07c-0.047,0-0.07-0.021-0.07-0.063h-0.14
			h-0.909v0.063l-0.209-0.063c-0.14-0.042-0.466-0.062-0.979-0.062c-0.699,0-1.305,0.021-1.817,0.062H14.07h-0.35l-0.07,0.063
			l-0.14-0.063h-0.14c-0.606,0-1.118-0.021-1.538-0.062c-0.047-0.042-0.164-0.063-0.35-0.063h-0.35l-0.769-0.126
			c-0.14,0-0.209-0.021-0.209-0.062c-0.047,0-0.07,0.021-0.07,0.062l-0.14-0.062h-0.07c-0.047,0-0.07-0.021-0.07-0.063
			s-0.024-0.062-0.07-0.062c-0.14-0.083-0.209-0.147-0.209-0.189h-0.07c-0.233-0.337-0.256-0.547-0.07-0.632
			c0.046,0,0.093-0.063,0.14-0.19c0-0.084,0.023-0.146,0.07-0.188c0.046,0,0.046-0.021,0-0.063c0.093-0.084,0.163-0.126,0.209-0.126
			l0.21-0.253c0.186-0.294,0.325-0.441,0.419-0.441c0.652-0.084,1.468-0.126,2.446-0.126c0.28,0.042,0.582,0.062,0.909,0.062
			c0.186,0,0.35-0.021,0.489-0.062h0.419h1.188h1.188h0.14h0.14l0.14-0.063h0.14c0.465,0,0.862-0.021,1.188-0.062h1.398h1.048
			l1.888,0.126c0.046,0.042,0.186,0.021,0.419-0.063l0.07-0.062c0.186-0.085,0.465-0.085,0.839,0h0.279
			c0.046,0.042,0.116,0.062,0.21,0.062h0.07h0.489h0.559l0.28,0.063v0.126c0.14-0.126,0.419-0.168,0.839-0.126
			c0.838,0.085,1.468,0.104,1.887,0.062h0.209c0.093,0.042,0.163,0.042,0.21,0h0.14h0.14h0.21c0.046,0.042,0.116,0.063,0.209,0.063
			c0.326,0.042,0.652,0.042,0.979,0c0.093,0,0.163-0.021,0.21-0.063h0.14c0.093,0,0.163-0.021,0.21-0.062l0.14-0.063h0.28
			c0.325,0,0.745,0.063,1.258,0.19c0.512,0.042,0.792,0.104,0.839,0.188c0.046,0,0.105,0.011,0.175,0.032
			c0.07,0.021,0.105,0.158,0.105,0.411l0.14,0.126l0.21,0.126L34.481,18.615z"/>
		<path fill="#242424" d="M62.649,58.498c0,0-0.07-0.084-0.209-0.252c-0.187-0.127-0.304-0.189-0.35-0.189v-0.063v-0.126
			l-0.07,0.063v-0.128V57.74h-0.07c-0.047,0-0.047-0.021,0-0.064v-0.062c-0.28-0.632-0.489-2.528-0.629-5.688l-0.14-0.126
			c0-0.211,0.023-0.38,0.07-0.506c0-0.211-0.024-0.356-0.07-0.442v-0.379c-0.047-0.084-0.07-0.211-0.07-0.38l0.07-0.506v-0.441
			c0-0.505,0.023-0.928,0.07-1.266v-1.073l0.07-0.633v-0.568c0-0.673-0.024-1.284-0.07-1.832l-0.14-1.454l-0.07-1.454l-0.14-1.896
			v-0.189c-0.047,0-0.886,0.043-2.516,0.127h-0.07h-0.14h-0.209l-0.07,0.062h-0.21h-0.209l-0.07-0.062
			c-0.187,0-0.327-0.021-0.419-0.063h-0.35h-0.21h-0.209H55.73h-0.49h-0.419c-0.14,0.042-0.327,0.063-0.559,0.063h-0.56h-0.559
			h-0.07h-0.14h-0.14h-0.07h-0.279h-0.07c-0.047,0-0.07-0.021-0.07-0.063h-0.07h-0.559v0.063l-0.21-0.063h-1.887h-0.279h-0.35
			l-0.07,0.063c-0.047,0-0.07-0.021-0.07-0.063h-0.07c-0.513,0-0.933-0.021-1.258-0.063h-0.28c-0.234,0-0.374-0.021-0.419-0.063
			h-0.14v0.695l-0.14,3.033c0,0.127,0.07,0.296,0.209,0.506l0.07,0.253c0.046,0.212,0.07,0.653,0.07,1.327
			c0,0.17-0.024,0.275-0.07,0.315c-0.094,0.086-0.117,0.212-0.07,0.38l0.07,0.188v0.695v0.885l-0.07,0.443h-0.209
			c0.14,0.126,0.209,0.399,0.209,0.82c0,0.381-0.012,0.844-0.035,1.392c-0.024,0.548-0.012,1.2,0.035,1.96v0.314v0.253
			c0,0.085,0.023,0.148,0.07,0.189v0.253v0.379l-0.07,0.316c0,0.675,0.023,1.159,0.07,1.454c0.046,0.042,0.07,0.126,0.07,0.252
			c0,0.254,0.07,0.465,0.21,0.633l0.14,0.252c0.093,0.465,0.023,1.265-0.209,2.402c-0.14,0.844-0.234,1.284-0.28,1.326l-0.209,0.381
			c0,0.084-0.21,0.126-0.629,0.126l-0.14,0.314l-0.21,0.254l-0.699-0.127c-0.513,0-1.048-0.104-1.608-0.315
			c-0.14-0.084-0.279-0.273-0.419-0.568l-0.209-0.442v-0.189v-0.126h-0.07c-0.094,0-0.094-0.042,0-0.126
			c0-0.084-0.024-0.127-0.07-0.127v-0.063c-0.047,0.042-0.07,0.042-0.07,0v-0.127v-0.127c-0.233-1.095-0.419-3.412-0.559-6.952
			l-0.07-0.188v-0.442v-0.379l-0.14-0.759c0-0.168,0.023-0.315,0.07-0.442v-0.379c0.046-0.211,0.07-0.59,0.07-1.139
			c0-0.463,0.023-0.758,0.07-0.886c0-0.21,0.023-0.398,0.07-0.567v-0.506c0-0.547-0.024-1.054-0.07-1.518l-0.14-1.138l-0.07-1.139
			l-0.14-1.58v-1.517v-1.518c0-0.168-0.024-0.294-0.07-0.379c-0.047-0.042-0.07-0.126-0.07-0.253c0-0.167,0.023-0.294,0.07-0.379
			c0.046-0.126,0.046-0.21,0-0.253v-0.442v-0.316c-0.047-0.042-0.07-0.104-0.07-0.189c0-0.084,0.023-0.147,0.07-0.189v-0.126v-1.58
			h-0.07l0.07-0.506c0.046-0.547,0-2.316-0.14-5.309c0-0.337,0.023-0.653,0.07-0.948c0-0.463-0.024-0.716-0.07-0.758l-0.07-0.189
			c0-0.126,0.023-0.23,0.07-0.315v-0.189c0-0.885,0.07-2.021,0.209-3.413c0-0.716,0.046-1.327,0.14-1.833v-0.821
			c0-0.548,0.07-1.074,0.209-1.58v-0.126v-0.253c0.046,0.042,0.093,0.042,0.14,0v-0.189c-0.047-0.042-0.07-0.104-0.07-0.189
			l0.07-0.062l0.14-0.063c0.046-0.084,0.07-0.21,0.07-0.379l0.209-0.188l0.07-0.126v-0.063c0.093-0.083,0.279-0.146,0.559-0.188
			c0.279-0.042,0.489-0.042,0.629,0l0.28,0.253c0.186,0.042,0.325,0.169,0.419,0.379h0.07h0.14l0.07,0.126
			c0,0.126,0.023,0.211,0.07,0.253c0.045,0.085,0.209,0.253,0.489,0.506c0.512,0.548,0.769,0.97,0.769,1.264
			c0.093,0.465,0.163,1.265,0.21,2.402c0.046,1.138,0.046,2.191,0,3.16c-0.047,0.632-0.07,1.286-0.07,1.959
			c0,0.379,0.023,0.717,0.07,1.011v0.885c0.046,0.212,0.07,0.928,0.07,2.149c0,1.264,0.023,2.044,0.07,2.339v0.189v0.253
			c0,0.126,0.023,0.211,0.07,0.253l0.07,0.252c0.046,0.338,0.07,0.991,0.07,1.959l0.07,1.896h0.979h0.769h0.699h0.35h0.35h0.909
			h0.699h0.14h0.07l0.07-0.062h0.07h1.328h0.979l1.118,0.062l0.21-0.062c0.093-0.042,0.28-0.063,0.559-0.063l0.14,0.063
			c0,0.042,0.023,0.062,0.07,0.062l0.07-0.062h0.279h0.35l0.14,0.062v0.063c0.14-0.126,0.303-0.147,0.49-0.063l0.559,0.063
			l0.559-0.063l0.07,0.063l0.14-0.063h0.07h0.07h0.14l0.14,0.063c0.233,0,0.419-0.021,0.56-0.063h0.07h0.14l0.14-0.062l0.07-0.063
			c0.14-0.042,0.372-0.021,0.699,0.063v-1.833v-0.379c-0.047-0.084-0.07-0.21-0.07-0.379c0-0.168,0.023-0.316,0.07-0.442v-0.315
			V33.09v-0.441c-0.047-0.042-0.07-0.104-0.07-0.189c0-0.126,0.023-0.21,0.07-0.253V32.08v-1.896h-0.07l0.07-0.569
			c0.046-0.21,0.07-0.843,0.07-1.896c0-1.475-0.024-2.718-0.07-3.729v-0.885v-0.759l-0.07-0.189c0-0.126,0.023-0.21,0.07-0.253
			v-0.189c0.093-1.264,0.21-2.212,0.35-2.844c0-0.506,0.046-0.926,0.14-1.264c0.186-0.969,0.326-1.495,0.419-1.58v-0.063v-0.126
			h0.07v-0.126v-0.062l0.14-0.063h0.07c0.046-0.168,0.14-0.273,0.279-0.315c0.046,0,0.07-0.021,0.07-0.063h0.07
			c0.046-0.042,0.255-0.062,0.629-0.062c0.326,0,0.512,0.021,0.559,0.062l0.21,0.126c0.14,0.042,0.255,0.105,0.35,0.189
			c0,0.085,0.045,0.085,0.14,0h0.07c0,0.085,0.023,0.147,0.07,0.188l0.07,0.063l0.489,0.315c0.465,0.295,0.699,0.527,0.699,0.695
			c0.046,0.211,0.07,1.011,0.07,2.402c0,0.717-0.07,1.833-0.209,3.35c0,0.337,0.023,0.654,0.07,0.948v0.885v2.528
			c0,1.433,0.023,2.171,0.07,2.212v0.253v0.253c0,0.168,0.023,0.274,0.07,0.316v0.253l0.21,7.584c0.045,0.085,0,1.327-0.14,3.729
			l0.21,0.758l0.07,0.189c0.093,0.592,0.14,1.139,0.14,1.645c0,0.252-0.024,0.4-0.07,0.441c-0.094,0.086-0.117,0.232-0.07,0.443
			l0.07,0.188v0.821v1.075l-0.07,0.505h-0.21c0.14,0.169,0.21,0.506,0.21,1.011c0,1.646,0.023,2.824,0.07,3.54v0.315v0.254
			l0.14,0.379c0,0.127-0.024,0.231-0.07,0.315l-0.07,0.379c0,0.253,0.046,0.675,0.14,1.265c0,0.086,0.023,0.147,0.07,0.188v0.254
			l0.21,0.252c0.046,0.043,0.07,0.105,0.07,0.189l0.07,0.443c0,0.295-0.07,0.674-0.209,1.137c-0.14,0.422-0.234,0.654-0.28,0.695
			l-0.209,0.188c-0.047,0.043-0.257,0.064-0.629,0.064l-0.209,0.126c-0.094,0.085-0.164,0.126-0.21,0.126h-0.838l-1.468-0.189
			C62.672,58.498,62.649,58.498,62.649,58.498z"/>
		<path fill="#242424" d="M91.938,38.336c0,0-0.047,0.042-0.14,0.126l-0.14,0.126h-0.07v0.063h-0.07c0,0.042-0.024,0.062-0.07,0.062
			l-0.07-0.062c-0.326,0.169-1.025,0.273-2.097,0.315v0.063h-0.14h-0.14h-0.14h-0.07h-0.14h-0.14c-0.14,0-0.234-0.021-0.279-0.063
			h-0.28h-0.21l-0.07-0.062l-0.419,0.062l-0.279,0.063h-0.35c-0.14,0.042-0.304,0.062-0.489,0.062h-0.419h-0.35h-0.07l-0.07,0.063
			l-0.14-0.063h-0.07h-0.209h-0.07h-0.07h-0.419l-0.14-0.062H82.78h-0.21h-0.209l-0.07,0.062l-0.14-0.062
			c-0.14,0-0.257-0.021-0.35-0.063v0.253c0.093,0.127,0.023,1.138-0.209,3.033l0.14,0.633l0.07,0.127
			c0.093,0.464,0.116,0.927,0.07,1.391c0,0.169-0.024,0.273-0.07,0.314c-0.094,0.087-0.14,0.213-0.14,0.381l0.14,0.188v0.695
			c-0.047,0.212-0.07,0.506-0.07,0.885l-0.07,0.442h-0.209c0.14,0.127,0.209,0.358,0.209,0.694l-0.07,1.454
			c-0.094,0.927-0.117,1.603-0.07,2.022v0.315v0.252c0,0.086,0.023,0.148,0.07,0.189v0.254v0.315l-0.07,0.38v0.379
			c0,0.464,0.023,0.801,0.07,1.012c0,0.126,0.023,0.211,0.07,0.252v0.316l0.14,0.315l0.14,0.252c0.046,0.422-0.024,1.201-0.21,2.339
			c-0.047,0-0.07,0.022-0.07,0.063h0.28h0.209h0.769h0.769h0.14h0.07h0.07h0.07c0.093-0.041,0.465-0.063,1.119-0.063l1.048,0.063
			l0.979,0.127l0.14-0.064l0.14-0.062c0.046-0.041,0.209-0.063,0.489-0.063l0.14,0.063c0,0.043,0.023,0.062,0.07,0.062l0.07-0.062
			h0.279h0.28l0.14,0.062v0.128c0.093-0.128,0.233-0.168,0.419-0.128c0.465,0.087,0.815,0.105,1.048,0.064h0.07h0.14l0.07-0.064
			h0.07h0.14l0.14,0.064c0.093,0.041,0.255,0.021,0.489-0.064h0.14l0.14-0.062l0.07-0.063h0.07h0.14
			c0.232,0,0.489,0.032,0.769,0.096c0.279,0.062,0.465,0.117,0.559,0.158l0.14,0.062c0.046,0.043,0.07,0.17,0.07,0.38l0.14,0.063
			l0.07,0.126c-0.047,0.042-0.07,0.169-0.07,0.38s-0.047,0.483-0.14,0.821c0,0.042-0.047,0.104-0.14,0.188l-0.279,0.19h-0.07h-0.07
			h-0.07v0.062h-0.14c-0.28,0.084-1.143,0.168-2.586,0.253l-0.07,0.063l-0.07-0.063h-0.21h-0.14l-0.14,0.063l-0.14-0.063h-0.14
			c-0.14,0-0.257-0.021-0.35-0.062h-0.35l-0.14-0.063h-0.209h-0.56l-0.349,0.063h-0.419c-0.14,0.041-0.327,0.062-0.559,0.062h-0.56
			h-0.489h-0.07h-0.14h-0.14h-0.07c-0.094-0.085-0.187-0.085-0.279,0h-0.07l-0.07-0.062h-0.559v0.062l-0.14-0.062
			c-0.14-0.043-0.769-0.063-1.887-0.063h-0.28h-0.35l-0.07,0.063l-0.07-0.063h-0.07l-1.258-0.188l-0.28-0.064h-0.349l-0.699-0.126
			c-0.14,0-0.209-0.021-0.209-0.062h-0.07h-0.07v-0.063h-0.07h-0.07c-0.047,0-0.07-0.021-0.07-0.062v-0.063
			c-0.14-0.084-0.21-0.146-0.21-0.188h-0.07c-0.047-0.041-0.07-0.189-0.07-0.442c0-0.042-0.047-0.147-0.14-0.315
			c-0.047-0.127-0.117-0.231-0.21-0.315v-0.127v-0.126h-0.07v-0.126v-0.127h-0.07c-0.094,0-0.094-0.041,0-0.127v-0.189
			c-0.187-0.969-0.327-3.244-0.419-6.826l-0.14-0.126c0-0.168,0.023-0.315,0.07-0.441v-0.443v-0.379
			c-0.047-0.084-0.07-0.21-0.07-0.379c0-0.168,0.023-0.316,0.07-0.442v-0.38l0.14-2.021c0-0.212,0.023-0.4,0.07-0.569
			c0.046-0.126,0.07-0.294,0.07-0.506c0-0.547-0.024-1.054-0.07-1.518l-0.07-1.201v-1.138c-0.047-0.463-0.07-0.989-0.07-1.58
			c0-0.632,0.023-1.179,0.07-1.644v-1.391V36.63c-0.047-0.042-0.07-0.126-0.07-0.253c0-0.168,0.023-0.294,0.07-0.379v-0.253v-0.442
			v-0.315c-0.047-0.042-0.07-0.104-0.07-0.189c0-0.084,0.023-0.146,0.07-0.188V34.48c0.046-0.379,0.07-0.906,0.07-1.58h-0.07
			l0.07-0.442c0.046-0.337,0.07-1.328,0.07-2.971v-2.149v-0.885v-0.758l-0.07-0.189c0-0.126,0.023-0.23,0.07-0.315v-0.189
			l0.279-3.097c0-0.673,0.046-1.222,0.14-1.644c0-0.294,0.023-0.547,0.07-0.759l0.14-0.885c0-0.294,0.023-0.463,0.07-0.506
			c-0.094-0.084-0.14-0.147-0.14-0.189h-0.07c-0.094-0.379-0.094-0.609,0-0.694l0.07-0.126l0.14-0.189v-0.062h0.07l0.07-0.126
			c0.186-0.168,0.303-0.338,0.35-0.507l0.14-0.126h1.049c0.279,0,0.512,0.022,0.699,0.063c0.186,0.042,0.396,0.062,0.629,0.062
			c0.14,0,0.255-0.021,0.35-0.062h0.279l0.909,0.062h0.699h0.14h0.07h0.07l0.07-0.062h1.328h1.188l1.188,0.126
			c0.093,0,0.163-0.021,0.209-0.063l0.14-0.062c0.093-0.042,0.28-0.063,0.56-0.063c0.093,0,0.163,0.022,0.209,0.063
			c0,0.042,0.046,0.062,0.14,0.062l0.07-0.062h0.279h0.419l0.14,0.062v0.063c0.093-0.083,0.28-0.104,0.56-0.063l0.629,0.063
			l0.699-0.063h0.14h0.14h0.07h0.07h0.21h0.14c0.186,0.042,0.396,0.042,0.629,0h0.14l0.14-0.062l0.14-0.063l0.07-0.062h0.14
			c0.28,0,0.57,0.031,0.874,0.095c0.303,0.063,0.524,0.116,0.664,0.158l0.14,0.062c0.046,0,0.07,0.105,0.07,0.316l0.14,0.063
			l0.14,0.126c-0.047,0.042-0.07,0.211-0.07,0.506l-0.14,0.694c-0.234,0.211-0.396,0.316-0.489,0.316h-0.07v0.063h-0.07h-0.07v0.062
			h-0.07h-0.07c-0.327,0.085-1.375,0.169-3.146,0.253l-0.07,0.063l-0.14-0.063c-0.094,0-0.164,0.021-0.21,0.063h-0.14H90.05h-0.21
			c-0.094,0-0.14-0.021-0.14-0.063h-0.489h-0.419c-0.047-0.042-0.117-0.062-0.21-0.062h-0.279h-0.629l-0.489,0.062h-0.489
			c-0.187,0.042-0.419,0.063-0.699,0.063h-0.629h-0.629h-0.07h-0.14h-0.14h-0.14c-0.094-0.084-0.187-0.084-0.28,0h-0.07
			c-0.047,0-0.07-0.021-0.07-0.063h-0.07H83.13v0.063l-0.14-0.063c-0.234-0.042-0.676-0.062-1.328-0.062
			c0.046,0.042,0.07,0.126,0.07,0.253c0.093,0.591,0.14,1.665,0.14,3.224c0,0.758-0.024,1.412-0.07,1.959
			c-0.047,0.548-0.07,1.138-0.07,1.771l-0.07,0.441l0.07,0.506v0.886v2.339l-0.07,1.39c0,0.169,0.011,0.295,0.035,0.379
			c0.023,0.085,0.035,0.148,0.035,0.189v0.253v0.253c0,0.126,0.023,0.211,0.07,0.253v0.253c0.046,0.505,0.07,1.686,0.07,3.54h0.279
			c0.093,0.042,0.21,0.062,0.35,0.062h0.28h0.209h0.559c0.326,0.042,0.489,0.042,0.489,0h0.14h0.07h0.07
			c0.14-0.042,0.419-0.062,0.839-0.062h0.769l0.769,0.126l0.14-0.063l0.07-0.062c0.046-0.042,0.163-0.063,0.349-0.063l0.14,0.063
			c0,0.042,0.023,0.062,0.07,0.062l0.07-0.062h0.209h0.21l0.14,0.062v0.063c0.093-0.083,0.21-0.104,0.35-0.063
			c0.28,0.042,0.559,0.042,0.839,0h0.14h0.07l0.07-0.062h0.07h0.07l0.07,0.062c0.186,0,0.35-0.021,0.489-0.062l0.28-0.126v-0.063
			h0.14c0.232,0,0.442,0.022,0.629,0.063l0.419,0.126l0.14,0.126v0.316l0.14,0.062v0.063h0.07l-0.14,1.138
			C91.938,38.315,91.938,38.336,91.938,38.336z"/>
		<path fill="#242424" d="M129.333,36.945c0,0,0.419,0.18,1.258,0.538c0.838,0.357,1.468,0.686,1.887,0.979
			c0.932,0.718,1.887,1.854,2.866,3.413l0.14,0.253l0.07,0.189l0.209,0.253c0.046,0.043,0.07,0.104,0.07,0.188
			c0.839,2.191,1.188,4.425,1.048,6.7c-0.094,0.843-0.396,1.938-0.909,3.286v0.253l-0.07,0.38v0.189
			c-0.094,0.464-0.304,0.947-0.629,1.453c0,0.043-0.094,0.147-0.28,0.315l-0.349,0.316v0.188c-0.56,0.718-0.979,1.201-1.258,1.453
			l-0.419,0.316l-0.07-0.063c-0.047,0.252-0.419,0.591-1.119,1.012c-1.025,0.591-2.051,1.097-3.076,1.517
			c-0.047,0.043-0.104,0.063-0.174,0.063c-0.07,0-0.129,0.021-0.175,0.062c-0.094,0-0.257,0.063-0.489,0.189
			c-0.047,0.043-0.164,0.062-0.35,0.062l-0.839,0.189c-0.886,0.168-1.515,0.254-1.887,0.254l-0.769,0.126
			c-0.28,0-0.559,0.042-0.839,0.126c-1.118,0-2.271-0.147-3.46-0.441c-1.188-0.295-2.016-0.568-2.481-0.822l-0.699-0.379
			c-0.094-0.042-0.117-0.146-0.07-0.315l-0.419-0.316l-0.14-0.126l-0.209-0.126l-0.14-0.062c0.046,0,0.233-0.104,0.56-0.315
			c-0.327-0.674-0.537-2.592-0.629-5.752l-0.14-0.127v-0.442v-0.441v-0.379c-0.047-0.127-0.07-0.273-0.07-0.443
			c0-0.168,0.023-0.315,0.07-0.441v-0.506l0.14-2.339l0.07-0.569c0.046-0.168,0.07-0.379,0.07-0.632c0-0.632-0.024-1.222-0.07-1.77
			l-0.07-1.454l-0.07-1.453c-0.047-0.547-0.07-1.201-0.07-1.959c0-0.76,0.023-1.433,0.07-2.022v-1.771v-0.379
			c-0.047-0.084-0.07-0.21-0.07-0.379c0-0.167,0.023-0.316,0.07-0.442v-0.315v-0.506v-0.442c-0.047-0.042-0.07-0.104-0.07-0.189
			c0-0.126,0.023-0.21,0.07-0.253V32.71c0.046-0.463,0.07-1.074,0.07-1.833h-0.07h-0.07l0.14-0.568
			c0.046-0.506,0.023-2.381-0.07-5.625v-0.886v-0.694l-0.14-0.126c0-0.126,0.023-0.231,0.07-0.316v-0.188
			c0-0.38,0.046-1.285,0.14-2.719v-0.632c0-0.336,0.023-0.547,0.07-0.632v-0.506c0-0.379,0.046-0.695,0.14-0.948
			c0.046,0,0.07-0.021,0.07-0.062l-0.07-0.126h0.07h0.07l-0.07-0.126v-0.063l0.14-0.063c0.046,0,0.07-0.021,0.07-0.062l0.21-0.316
			h0.14v-0.062c0.14-0.042,0.337-0.084,0.594-0.126c0.255-0.042,0.454-0.063,0.594-0.063l0.279,0.063l0.419,0.188h0.07h0.14
			l0.07,0.063l0.14-0.063c1.258-0.337,2.422-0.506,3.495-0.506c0.792,0,1.84,0.106,3.146,0.316c0.745,0.126,1.281,0.252,1.607,0.379
			c1.024,0.464,2.167,1.201,3.425,2.212l0.14,0.189l0.14,0.126c0.046,0,0.186,0.105,0.419,0.315
			c1.258,1.518,2.143,3.287,2.656,5.311c0.093,0.421,0.14,0.906,0.14,1.454l-0.07,1.517c0,0.126,0.045,0.315,0.14,0.569l0.07,0.188
			v0.379c0,0.169-0.047,0.505-0.14,1.011c-0.047,0.042-0.07,0.096-0.07,0.158c0,0.063-0.024,0.116-0.07,0.158l-0.209,0.379
			l0.07,0.126l-0.629,1.518l-0.28,0.379l-0.14-0.063v0.189c0,0.338-0.187,0.674-0.559,1.011c-0.699,0.801-1.398,1.517-2.097,2.149
			l-0.21,0.189l-0.209,0.126c-0.187,0.168-0.327,0.274-0.419,0.316l-0.699,0.315l-0.14,0.063
			C128.936,36.861,129.333,36.945,129.333,36.945z M121.504,36.692l0.419-0.063h0.21h0.14h0.14c0.093,0,0.14-0.021,0.14-0.062h0.14
			h0.14c2.097-0.632,3.681-1.622,4.753-2.972v-0.126l0.14-0.253c0.046-0.084,0.116-0.272,0.21-0.568c0-0.042,0.07-0.189,0.209-0.442
			l0.14-0.253l0.419-1.327l0.14-0.315l0.07-0.379c0.046-0.168,0.07-0.464,0.07-0.886c0-0.42-0.117-1.411-0.35-2.97
			c-0.279-1.348-0.443-2.064-0.489-2.149c0-0.084-0.024-0.146-0.07-0.188c-0.094-0.168-0.14-0.316-0.14-0.442v-0.126
			c-0.047-0.042-0.07-0.095-0.07-0.158c0-0.062-0.024-0.114-0.07-0.157l-0.14-0.19l-0.07-0.062v-0.126v-0.126l-0.419-0.886h-0.07
			l-0.07-0.253c-0.56-0.969-1.235-1.77-2.027-2.401c-0.327-0.294-0.606-0.484-0.839-0.569l-0.14-0.063
			c-0.047,0-0.094-0.021-0.14-0.062c-0.047-0.042-0.07-0.084-0.07-0.126c-1.119-0.379-1.935-0.569-2.447-0.569
			c-0.233,0-0.583,0.042-1.048,0.126c-0.14,0-0.234,0.022-0.28,0.063c0.14,1.264,0.21,2.297,0.21,3.097
			c0,0.717-0.012,1.264-0.035,1.644c-0.024,0.379-0.035,0.653-0.035,0.821c0,0.379,0.023,0.695,0.07,0.948l0.07,0.885v2.402
			c0,1.307,0.023,2.106,0.07,2.402v0.253v0.252c0,0.169,0.023,0.274,0.07,0.315v0.252c0.046,0.632,0.07,2.678,0.07,6.131l0.28-0.189
			C120.99,36.735,121.224,36.692,121.504,36.692z M121.574,38.209c0,0-0.047,0-0.14,0c-0.14-0.041-0.303-0.062-0.489-0.062
			c-0.14,0-0.209-0.084-0.209-0.253c0-0.042-0.07-0.063-0.21-0.063v0.632c0,0.464-0.094,1.729-0.279,3.792l0.209,0.695l0.07,0.189
			c0.093,0.591,0.116,1.139,0.07,1.645c0,0.252-0.024,0.4-0.07,0.441c-0.094,0.17-0.14,0.315-0.14,0.442l0.14,0.189
			c-0.047,0.126-0.07,0.399-0.07,0.82v1.074l-0.07,0.506h-0.209c0.14,0.169,0.209,0.507,0.209,1.012c0,0.38-0.012,0.864-0.035,1.454
			c-0.024,0.591-0.012,1.265,0.035,2.021v0.316c-0.047,0.127-0.047,0.211,0,0.253l0.07,0.379v0.315l-0.07,0.38v0.315
			c0,0.253,0.046,0.548,0.14,0.885c0,0.085,0.023,0.147,0.07,0.189c0,0.169,0.07,0.338,0.209,0.506l0.07,0.126
			c0.046,0.086,0.07,0.275,0.07,0.569c0,0.379-0.047,0.693-0.14,0.947c-0.047,0.296-0.117,0.484-0.209,0.568l-0.14,0.127
			c1.071,0.168,2.143,0.252,3.215,0.252c1.678,0,3.099-0.252,4.264-0.758l0.14-0.127c0.373-0.252,0.559-0.399,0.559-0.441
			c0.093-0.042,0.198-0.115,0.314-0.222c0.116-0.104,0.175-0.179,0.175-0.222c0-0.041,0.163-0.21,0.489-0.506
			c0.233-0.252,0.56-0.716,0.979-1.392l0.419-0.758c0.465-0.969,0.722-2.465,0.769-4.488c0.046-0.379,0.07-0.862,0.07-1.453
			c0-0.547-0.024-0.926-0.07-1.138c0-0.126-0.024-0.21-0.07-0.253c-0.094-0.253-0.117-0.442-0.07-0.568v-0.188
			c0-0.168-0.024-0.295-0.07-0.38l-0.14-0.38l0.07-0.126l-0.07-0.126c-0.094-0.507-0.187-0.886-0.279-1.139h-0.07l-0.07-0.38
			c-0.233-0.926-0.769-1.959-1.607-3.097l-0.629-0.759l-0.14-0.063l-0.14-0.188v-0.064c-0.699-0.589-1.328-0.969-1.887-1.137
			c-0.419-0.168-1.212-0.211-2.376-0.127l-0.839,0.062h-0.14l-0.209,0.126v-0.062l-0.14,0.062h-0.14c-0.047,0.043-0.07,0.043-0.07,0
			h-0.14l-0.559,0.127c0-0.041-0.024-0.041-0.07,0h-0.07c-0.094,0-0.187-0.053-0.279-0.158c-0.094-0.104-0.117-0.179-0.07-0.221
			l0.14-0.062C121.597,38.231,121.574,38.209,121.574,38.209z"/>
		<path fill="#242424" d="M162.534,59.699c0,0-0.047,0.043-0.14,0.127c-0.094,0.084-0.164,0.126-0.209,0.126h-0.07h-0.07v0.063
			h-0.14c-0.28,0.084-1.072,0.126-2.376,0.126h-0.07h-0.14h-0.209l-0.14,0.062h-0.07h-0.209l-0.14-0.062
			c-0.187,0-0.327-0.021-0.419-0.063h-0.35c-0.094,0-0.164-0.021-0.21-0.062h-0.209h-0.28h-0.419l-0.279,0.062
			c-0.187,0-0.35,0.021-0.489,0.063c-0.14,0.042-0.327,0.062-0.559,0.062h-0.56h-0.629h-0.07h-0.14c-0.047,0.042-0.094,0.042-0.14,0
			h-0.14h-0.28v0.063l-0.14-0.063h-0.559v0.063l-0.21-0.063l-1.817,0.063h-0.35h-0.209l-0.07,0.062h-0.07l-0.07-0.062h-0.769
			c-0.047,0.127-0.094,0.188-0.14,0.188l-0.909-0.126c-0.653-0.126-1.096-0.272-1.328-0.441c-0.187-0.041-0.327-0.254-0.419-0.633
			l-0.28-0.506l0.07-0.188c0-0.084-0.024-0.126-0.07-0.126h-0.07v-0.127v-0.189h-0.07V57.93v-0.128
			c-0.187-1.053-0.327-3.622-0.419-7.711l-0.14-0.127c0-0.21,0.023-0.379,0.07-0.505v-0.441c-0.094-0.253-0.14-0.527-0.14-0.822
			c0-0.168,0.023-0.316,0.07-0.442c0.046-0.126,0.07-0.272,0.07-0.441c0-0.758,0.046-1.476,0.14-2.148l0.07-0.506V44.09
			c0.046-0.127,0.07-0.338,0.07-0.633c0-0.42-0.024-0.735-0.07-0.948l-0.07-1.138c-0.094-0.42-0.14-1.348-0.14-2.781l-0.07-0.694
			l0.07-0.948v-1.454v-0.316c-0.047-0.084-0.07-0.189-0.07-0.315l0.07-0.379v-0.253V33.85v-0.316l-0.07-0.189
			c0-0.084,0.023-0.146,0.07-0.189v-0.126c0.046-0.294,0.07-0.822,0.07-1.581h-0.07h-0.07l0.14-0.442
			c0.046-0.632,0-2.316-0.14-5.056v-0.885V24.37l-0.07-0.189v-0.254l0.07-0.188l0.14-3.097v-0.822c0-0.42,0.023-0.695,0.07-0.821
			c0-0.294,0.023-0.568,0.07-0.822c0-0.421,0.023-0.716,0.07-0.885c0-0.253,0.023-0.399,0.07-0.442v-0.189v-0.189h0.07v-0.13v-0.188
			l0.07-0.063l0.07-0.126l0.14-0.253c0-0.083,0.046-0.167,0.14-0.252c0.046,0,0.07-0.021,0.07-0.062v-0.063
			c0.093-0.084,0.279-0.146,0.559-0.189c0.28-0.042,0.512-0.042,0.699,0c0,0.085,0.093,0.147,0.28,0.189
			c0.14,0.042,0.255,0.148,0.35,0.316c0,0.085,0.046,0.085,0.14,0h0.07l0.21,0.379c0.512,0.464,0.862,0.801,1.048,1.011l0.28,0.505
			c0.186,0.885,0.279,2.592,0.279,5.12c-0.047,0.548-0.07,1.138-0.07,1.771c0,0.338,0.023,0.632,0.07,0.885V26.2
			c0.046,0.253,0.07,0.97,0.07,2.149s0.023,1.896,0.07,2.148v0.253v0.252c0,0.126,0.023,0.211,0.07,0.253v0.189
			c0.046,0.379,0.07,1.033,0.07,1.959v2.465c0,1.011,0.023,1.623,0.07,1.833l-0.28,3.034c0,0.126,0.023,0.212,0.07,0.253
			l0.209,0.568c0.093,0.465,0.116,0.928,0.07,1.391c0,0.211-0.024,0.338-0.07,0.379c-0.094,0.086-0.14,0.212-0.14,0.38l0.07,0.126
			v0.759v0.948l-0.14,0.442h-0.14c0.14,0.126,0.21,0.357,0.21,0.694l-0.07,1.58c-0.094,0.971-0.117,1.706-0.07,2.212v0.254v0.38
			c0,0.084,0.023,0.147,0.07,0.188v0.252v0.38l-0.07,0.38v0.441c0,0.506,0.023,0.885,0.07,1.139l0.07,0.252
			c0,0.212,0.07,0.443,0.209,0.695l0.07,0.316c0.093,0.422,0.023,1.307-0.209,2.653v0.063h0.14c0.28,0,0.535-0.021,0.769-0.063
			h0.769h0.14h0.07h0.14v-0.06c0.14-0.042,0.396-0.064,0.769-0.064s0.675-0.02,0.909-0.062h0.699l1.188,0.062l0.14-0.062l0.14-0.063
			c0.093-0.042,0.255-0.063,0.489-0.063c0.046,0.043,0.116,0.063,0.209,0.063c0,0.042,0.023,0.063,0.07,0.063l0.07-0.063h0.349h0.28
			l0.21,0.063v0.062c0.093-0.083,0.255-0.104,0.489-0.062l0.559,0.062l0.559-0.062l0.14,0.062h0.07h0.07l0.14-0.062l0.14,0.062h0.07
			c0.233,0,0.419-0.02,0.56-0.062h0.07h0.14l0.14-0.063l0.07-0.063h0.209l0.629,0.127c0.279,0.043,0.419,0.104,0.419,0.188
			l0.14,0.063c0.093,0.042,0.093,0.169,0,0.38l0.07,0.063l0.14,0.127c-0.047,0.042-0.07,0.146-0.07,0.314
			c0,0.085-0.024,0.223-0.07,0.411c-0.047,0.189-0.117,0.348-0.21,0.474C162.534,59.677,162.534,59.699,162.534,59.699z"/>
		<path fill="#242424" d="M190.004,60.584l-0.209-0.127v-0.062v-0.127h-0.07v0.062c-0.047,0-0.07-0.021-0.07-0.062v-0.126
			l-0.07,0.062v-0.127l-0.07-0.062c-0.327-0.718-0.863-2.529-1.607-5.437l-0.14-0.127c-0.047-0.041-0.07-0.188-0.07-0.442
			l-0.14-0.441c-0.094-0.253-0.14-0.506-0.14-0.759c-0.14-0.381-0.21-0.695-0.21-0.948l-0.28-1.264c0-0.084-0.094-0.443-0.279-1.074
			l-0.14-1.201c-0.047-0.253-0.234-0.863-0.56-1.833c0.046,0.126-0.047-0.19-0.279-0.948c-0.187,0.043-0.583,0.063-1.188,0.063
			h-0.07c-0.047,0.043-0.117,0.043-0.21,0h-0.209h-0.14c-0.047,0.043-0.117,0.063-0.21,0.063l-0.14-0.063h-0.21
			c-0.187,0-0.349-0.021-0.489-0.063h-0.419c-0.14,0-0.233-0.021-0.279-0.062h-0.28h-0.629l-0.489,0.062h-0.56l-0.699,0.063h-0.699
			h-0.699h-0.14l-0.07,0.063l-0.14-0.063h-0.14c-0.14,0-0.257,0.021-0.35,0.063h-0.07h-0.07l-0.07-0.063h-0.629v0.063l-0.209-0.063
			h-0.769v0.189c-0.047,0.085-0.07,0.211-0.07,0.379v0.126l-0.14,0.19l-0.07,0.126l-0.349,1.454h0.07v0.062l-0.21,0.379
			c-0.279,0.886-0.676,2.402-1.188,4.552l-0.14,0.694l-0.209,0.633v0.189c0,0.168-0.047,0.295-0.14,0.379l-0.839,2.401l-0.14,0.568
			c-0.047,0.296-0.117,0.484-0.209,0.568c-0.14,0.295-0.234,0.484-0.28,0.568l-0.419,1.012v0.127c0,0.042-0.024,0.063-0.07,0.063
			h-0.07l-0.07,0.062v0.126c0,0.086-0.07,0.127-0.21,0.127l-0.14,0.127c-0.094,0.084-0.164,0.126-0.209,0.126v0.063l-0.07,0.062
			c-0.653,0-0.979-0.062-0.979-0.188l-0.209-0.189l-0.28-0.253c0-0.042-0.024-0.062-0.07-0.062c-0.047,0-0.07-0.021-0.07-0.063
			v-0.127l-0.07-0.126c-0.234-0.21-0.443-0.526-0.629-0.948c-0.094-0.168-0.14-0.295-0.14-0.379
			c0.093-1.053,0.396-2.381,0.909-3.981c0.093-0.253,0.186-0.494,0.28-0.728c0.093-0.23,0.163-0.453,0.209-0.664l0.14-0.758
			l0.14-0.759c0.186-0.464,0.373-1.075,0.559-1.833c0.186-0.759,0.326-1.412,0.419-1.959l0.07-0.254
			c0.046-0.041,0.07-0.104,0.07-0.189c0-0.126,0.023-0.21,0.07-0.252v-0.188l0.35-1.455c-0.327,0-0.489-0.041-0.489-0.126
			l-0.07,0.062h-0.07c0-0.041-0.024-0.062-0.07-0.062h-0.07l-0.07-0.063l-0.14-0.126l-0.07-0.062
			c-0.187-0.294-0.21-0.464-0.07-0.507c0-0.041,0.011-0.104,0.035-0.188c0.023-0.084,0.058-0.126,0.105-0.126
			c0.046,0,0.07-0.021,0.07-0.063c-0.047,0-0.07-0.021-0.07-0.062h0.07l0.07-0.063l0.14-0.253c0.186-0.253,0.302-0.379,0.349-0.379
			c0.14-0.042,0.396-0.062,0.769-0.062c0.28-1.096,0.512-1.971,0.699-2.623c0.186-0.653,0.512-1.696,0.979-3.129v-0.316v-0.379
			v-0.189c0-0.294,0.116-0.8,0.35-1.517c0.093-0.253,0.163-0.4,0.209-0.442l0.14-0.379v-0.188l0.21-0.822
			c0-0.168,0.035-0.357,0.105-0.569c0.07-0.21,0.104-0.356,0.104-0.441l0.21-0.506c0.046,0.042,0.116,0.062,0.209,0.062v-0.253
			c0-0.294,0.07-0.758,0.21-1.391c0.465-1.475,0.769-2.654,0.909-3.54l0.209-0.695v-0.252c0-0.21,0.046-0.463,0.14-0.759l0.14-0.442
			c0.186-0.547,0.325-1.158,0.419-1.833l0.07-0.379v-0.379c0.046-0.126,0.046-0.273,0-0.442c-0.047-0.21-0.047-0.337,0-0.379
			c0.093-0.842,0.396-1.896,0.909-3.16c0.28-0.885,0.465-1.432,0.559-1.644c0.233-0.294,0.35-0.463,0.35-0.505
			c0.046-0.126,0.232-0.147,0.559-0.063l-0.07-0.126l0.07-0.062l0.07-0.126l0.14-0.442v-0.062l0.07-0.063
			c0.093-0.042,0.232-0.095,0.419-0.158c0.186-0.062,0.325-0.095,0.419-0.095c0.279,0,0.465,0.106,0.559,0.316l0.07-0.063
			c0.046,0,0.116,0.042,0.209,0.126l0.07,0.126l0.489,0.316c0.372,0.295,0.652,0.568,0.839,0.822
			c0.652,2.317,1.048,3.961,1.188,4.93c0.14,0.843,0.28,1.496,0.419,1.959l0.28,1.075l0.279,0.947
			c0.14,0.675,0.326,1.528,0.56,2.561c0.232,1.033,0.442,1.907,0.629,2.623l0.14,0.253c0,0.169,0.046,0.379,0.14,0.632l0.14,0.253
			l1.188,4.488c0.325,1.686,0.605,2.823,0.838,3.413c0.046,0.169,0.116,0.549,0.21,1.138c0.093,0.591,0.255,1.517,0.489,2.781
			l0.209,0.253l0.21,0.441v0.189c0.186,0.296,0.35,0.843,0.489,1.644c0.046,0.126,0.07,0.274,0.07,0.442
			c-0.094,0.126-0.094,0.295,0,0.505l0.14,0.127l0.21,0.822l0.209,1.074l0.07,0.567h-0.14c0.186,0.169,0.35,0.654,0.489,1.454
			c0.233,1.308,0.465,2.317,0.699,3.034c0,0.084,0.011,0.18,0.035,0.284c0.023,0.104,0.058,0.18,0.105,0.222
			c0,0.084,0.023,0.147,0.07,0.189c0.093,0.168,0.14,0.356,0.14,0.567c0,0.169,0.022,0.274,0.07,0.316
			c0.093,0.506,0.186,0.906,0.279,1.201c0,0.042,0.023,0.115,0.07,0.221c0.046,0.105,0.093,0.18,0.14,0.221
			c0,0.043,0.046,0.105,0.14,0.189c0.093,0.086,0.14,0.147,0.14,0.188c0.233,0.339,0.303,0.865,0.21,1.581
			c0,0.422-0.024,0.653-0.07,0.695c-0.047,0.042-0.07,0.105-0.07,0.189c0,0.085-0.164,0.146-0.49,0.188l-0.07,0.126l-0.14,0.127
			l-0.699,0.127c-0.513,0.084-0.886,0.104-1.118,0.063L190.004,60.584z M184.622,42.065l-0.489-1.453
			c0-0.168-0.256-1.349-0.769-3.54l-0.14-0.379c-0.047-0.041-0.07-0.095-0.07-0.158c0-0.062-0.024-0.095-0.07-0.095
			c-0.047-0.126-0.07-0.294-0.07-0.506c0-0.126-0.024-0.21-0.07-0.253l-0.21-0.821l-0.07-0.506v-0.063l-0.419-1.833v0.063h-0.07
			l-0.07-0.569c-0.187-1.053-0.629-2.886-1.328-5.499l-0.21-1.074l-0.769,3.224v0.189c0,0.126-0.07,0.442-0.21,0.948
			c0,0.042,0.011,0.095,0.035,0.158c0.023,0.062,0.011,0.137-0.035,0.221c-0.047,0.126-0.07,0.274-0.07,0.442
			c-0.047,0.211-0.117,0.4-0.209,0.568c-0.094,0.169-0.164,0.295-0.21,0.379c-0.234,1.139-0.419,1.854-0.559,2.149l-0.35,1.011
			c-0.047,0.126-0.164,0.654-0.35,1.58c-0.047,0.675-0.117,1.075-0.209,1.201c-0.047,0.042-0.14,0.421-0.28,1.137
			c-0.233,1.056-0.466,2.045-0.699,2.972l-0.14,0.568h0.07l0.14-0.062h0.07l2.376-0.063l1.258,0.126l0.28-0.126
			c0.093-0.042,0.279-0.063,0.559-0.063h0.14c0.046,0.043,0.116,0.063,0.21,0.063h0.07h0.209h0.419l0.14,0.063v0.062
			c0.093-0.084,0.255-0.104,0.489-0.062l0.629,0.062l0.629-0.062h0.14h0.14h0.07L184.622,42.065L184.622,42.065z"/>
		<path fill="#242424" d="M222.507,54.39c0,0-0.188,0.231-0.559,0.694l-0.421,0.506c0,0.042-0.164,0.212-0.488,0.506
			c0.046,0,0.068,0.021,0.068,0.063c-0.094,0.042-0.174,0.105-0.244,0.189c-0.069,0.084-0.129,0.168-0.174,0.252l0.068,0.062
			l-0.488,0.442c-1.259,1.055-2.737,1.875-4.438,2.465c-1.701,0.591-3.459,0.885-5.276,0.885c-0.605,0-1.469-0.084-2.587-0.252
			l-0.278-0.062c-0.467-0.253-0.991-0.579-1.573-0.979c-0.583-0.399-1.013-0.748-1.293-1.043c-0.327-0.379-0.724-0.927-1.188-1.644
			c-0.232-0.337-0.617-0.874-1.152-1.612c-0.537-0.736-0.922-1.379-1.153-1.928l-0.56-2.021c-0.56-2.274-0.943-4.182-1.153-5.721
			c-0.209-1.537-0.314-3.086-0.314-4.646c0-1.138,0.095-2.991,0.279-5.562c0.047-0.126,0.069-0.316,0.069-0.569
			c-0.047-0.126-0.069-0.272-0.069-0.441c0-0.168,0.022-0.357,0.069-0.569c0.047-0.21,0.095-0.357,0.142-0.442v-0.694v-0.569v-0.253
			c0-0.167,0.022-0.273,0.069-0.316c0.046-0.042,0.068-0.104,0.068-0.188c0-0.632,0.094-1.538,0.28-2.718h-0.069l0.209-0.76
			c0.699-2.021,1.84-4.171,3.426-6.446c0.651-0.97,1.117-1.729,1.397-2.275c0.14-0.253,0.861-0.8,2.167-1.644l0.141-0.189
			l0.769-0.316c1.91-0.674,3.705-1.011,5.383-1.011c0.886,0,1.665,0.105,2.343,0.316c0.674,0.211,1.433,0.548,2.271,1.011
			c0.838,0.505,1.328,0.885,1.468,1.138l0.35,0.253c0.141,0.169,0.211,0.274,0.211,0.316l-0.07,0.062
			c0.093,0.086,0.186,0.19,0.279,0.316s0.162,0.211,0.209,0.252c0,0.085,0.022,0.148,0.07,0.19v0.126l0.211,0.505
			c0.045,0.126,0.08,0.211,0.104,0.253s0.059,0.104,0.105,0.188v0.19c0,0.085,0.022,0.148,0.069,0.189l0.069,0.188
			c0,0.126-0.129,0.295-0.385,0.506c-0.258,0.211-0.408,0.274-0.455,0.189c-0.514-0.21-0.838-0.442-0.979-0.695
			c0-0.042-0.023-0.042-0.07,0s-0.068,0.042-0.068,0c-0.047,0-0.116-0.062-0.211-0.188l-0.278-0.254l-1.049-0.632
			c-0.515-0.294-0.886-0.547-1.118-0.759c-1.538-1.264-2.96-1.896-4.264-1.896c-1.26,0-2.563,0.61-3.916,1.833
			c-0.278,0.211-0.676,0.863-1.188,1.959c-1.258,2.653-1.98,4.804-2.167,6.446l-0.069,0.632v0.38v0.315
			c-0.279,4.045-0.467,7.417-0.561,10.113c-0.047,1.137-0.068,2.887-0.068,5.246l0.209,0.758l0.141,0.379l0.068,0.127
			c0.187,0.674,0.326,1.453,0.42,2.338c0.094,0.254,0.094,0.443,0,0.569c-0.047,0.126-0.022,0.338,0.07,0.632l0.139,0.189
			c0,0.086,0.233,0.906,0.699,2.466l0.211,0.693c-0.095-0.167-0.188-0.209-0.279-0.125c0,0.084,0.021,0.147,0.068,0.189
			c0.326,0.252,0.582,0.674,0.771,1.264c0.14,0.338,0.231,0.527,0.278,0.568c0.793,1.561,1.631,2.74,2.518,3.54
			c0.279,0.338,0.513,0.527,0.697,0.569l0.281,0.126l0.209,0.126c0.56,0.211,0.861,0.315,0.908,0.315
			c0.186,0.043,0.49,0.063,0.908,0.063c0.514,0,0.861-0.041,1.049-0.126c0.326-0.126,0.814-0.442,1.469-0.948
			c1.584-1.305,2.586-2.212,3.006-2.717l0.908-1.201l0.56-0.759l0.56-0.821c0.047-0.127,0.104-0.189,0.176-0.189
			c0.07,0,0.149,0.042,0.244,0.125l0.141,0.064l0.35-0.569l0.419-0.38c0.046-0.041,0.046-0.062,0-0.062
			c0.372,0.422,0.629,0.844,0.769,1.264c0.047,0.17,0.07,0.379,0.07,0.633C222.507,54.052,222.507,54.39,222.507,54.39z"/>
		<path fill="#242424" d="M248.721,60.016c0,0-0.06-0.042-0.176-0.127c-0.115-0.084-0.222-0.146-0.314-0.189v-0.062h-0.068
			c-0.049,0-0.049-0.021,0-0.063V59.51h-0.07h-0.07v-0.062v-0.063c-0.187-0.294-0.396-1.348-0.629-3.159l-0.07-0.063v-0.189
			c0-0.127-0.022-0.211-0.068-0.254v-0.188c-0.048-0.041-0.07-0.104-0.07-0.189v-0.188v-0.253v-0.632v-0.443v-0.315v-0.253
			c0-0.168-0.162-0.632-0.488-1.391l-0.209-0.758c-0.142-0.338-0.305-0.822-0.49-1.454l-0.35-0.885c0-0.084-0.023-0.147-0.069-0.19
			c-0.095-0.168-0.14-0.272-0.14-0.314v-0.127l-0.142-0.254c-0.047-0.041-0.069-0.104-0.069-0.188l-0.068-0.063
			c-0.047,0-0.047-0.021,0-0.062v-0.126l-0.42-0.822l-0.07,0.063v-0.315c-0.279-0.59-0.838-1.433-1.678-2.529l-0.209-0.252
			l-0.42-0.506l-0.069-0.062l-0.14-0.126V42.76c-0.142-0.127-0.351-0.399-0.629-0.821l-0.699-0.694
			c-0.047-0.042-0.094-0.095-0.141-0.158c-0.048-0.062-0.117-0.158-0.209-0.284l-0.421-0.379l-0.487-0.442l-0.42-0.316
			c-0.047,0-0.07,0.022-0.07,0.064h0.07l-0.279,0.188c-0.28,0.168-0.725,0.484-1.328,0.947l-1.049,0.759
			c-0.188,0.042-0.42,0.19-0.699,0.442l-0.07,0.062c0,0.042-0.047,0.063-0.139,0.063h-0.07c-0.42,0.211-0.816,0.379-1.188,0.506
			v0.505c0,0.253-0.024,0.401-0.069,0.442c-0.094,0.085-0.142,0.211-0.142,0.379l0.142,0.189v0.76c0,0.463-0.024,0.778-0.069,0.946
			l-0.07,0.506c-0.047-0.084-0.117-0.084-0.209,0c0.231,0.211,0.303,0.676,0.209,1.392c-0.094,0.844-0.141,1.476-0.141,1.896
			l0.069,1.327v0.253v0.379c0,0.085,0.022,0.148,0.069,0.189v0.253v0.442l-0.069,0.379v0.442c0,0.506,0.022,0.885,0.069,1.138
			c0,0.127,0.023,0.231,0.07,0.315v0.316c0,0.085,0.047,0.211,0.141,0.379l0.14,0.315c0.093,0.465,0.022,1.369-0.209,2.719
			l-0.351,1.391c-0.094,0.253-0.141,0.421-0.141,0.505c-0.094,0.086-0.326,0.127-0.699,0.127l-0.139,0.316l-0.21,0.314
			c-0.187-0.042-0.548-0.115-1.083-0.222c-0.537-0.105-0.943-0.221-1.225-0.348c-0.139-0.083-0.256-0.293-0.35-0.631
			c-0.14-0.339-0.232-0.507-0.279-0.507v-0.188V59.19c-0.047,0-0.069-0.021-0.069-0.063V59v-0.188h-0.069
			c-0.095,0-0.095-0.041,0-0.127v-0.189c-0.279-1.348-0.443-3.96-0.49-7.838l-0.069-0.126V50.03v-0.443v-0.441
			c-0.048-0.126-0.069-0.273-0.069-0.442c0-0.337,0.047-0.632,0.141-0.885c0-0.506,0.022-0.906,0.069-1.201v-1.012
			c0-0.209,0.023-0.399,0.07-0.568c0.045-0.168,0.069-0.356,0.069-0.568c0-0.633-0.024-1.18-0.069-1.644l-0.07-1.201l-0.069-1.265
			c-0.047-0.463-0.07-1.011-0.07-1.644v-1.644v-1.517v-0.316c-0.047-0.084-0.069-0.189-0.069-0.316c0-0.337,0.046-0.547,0.14-0.632
			l-0.069-0.759c-0.048-0.042-0.069-0.104-0.069-0.189c0-0.084,0.021-0.146,0.069-0.189l0.069-0.126v-1.581h-0.069l0.069-0.505
			c0.047-0.253,0.07-0.842,0.07-1.771c0-1.305-0.023-2.401-0.07-3.287v-0.885v-0.758l-0.069-0.126c0-0.126,0.022-0.231,0.069-0.316
			V23.61l0.211-3.034c0.045-0.042,0.068-0.294,0.068-0.759c0-0.42,0.023-0.695,0.07-0.821l0.141-0.759
			c0-0.42,0.022-0.716,0.069-0.885c0-0.253,0.022-0.4,0.069-0.442c0.047,0,0.07-0.042,0.07-0.126
			c-0.048-0.042-0.07-0.104-0.07-0.189h0.07h0.069v-0.126v-0.189l0.069-0.063l0.07-0.062c0.045-0.042,0.068-0.095,0.068-0.158
			c0-0.062,0.023-0.116,0.07-0.158c0-0.042,0.046-0.104,0.14-0.188c0.046,0,0.069-0.021,0.069-0.063l0.07-0.062
			c0.186-0.042,0.396-0.084,0.629-0.126c0.231-0.042,0.42-0.042,0.56,0c0,0.085,0.093,0.147,0.28,0.189
			c0.139,0.042,0.255,0.148,0.35,0.316h0.068h0.141l0.07,0.188l0.068,0.126l0.489,0.442c0.466,0.379,0.745,0.738,0.839,1.075
			c0.141,1.475,0.163,3.119,0.069,4.93c-0.047,0.548-0.069,1.138-0.069,1.771c0,0.338,0.022,0.632,0.069,0.885V26.2v2.339
			l-0.069,1.392c0,0.169,0.012,0.295,0.035,0.379c0.021,0.085,0.034,0.147,0.034,0.189v0.253v0.252c0,0.126,0.022,0.211,0.069,0.253
			v0.189c0.095,2.022,0.142,4.151,0.142,6.384c0,0.59-0.069,1.434-0.211,2.528l0.28-0.189l0.629-0.567l1.607-1.453
			c0-0.042,0.022-0.084,0.069-0.127c0.046-0.041,0.093-0.063,0.14-0.063l0.142-0.252c1.258-1.475,2.071-2.485,2.444-3.034
			l0.771-1.011c0.187-0.21,0.313-0.368,0.385-0.474c0.069-0.104,0.127-0.18,0.175-0.222c0.094-0.084,0.141-0.23,0.141-0.441v-0.189
			l0.488-0.947l0.279-0.254l0.21-0.253v-0.126c0.093-0.379,0.304-0.8,0.63-1.264l0.278-0.316l0.142,0.063v-0.126
			c0-0.21,0.114-0.569,0.35-1.075c0.371-0.632,0.768-1.517,1.188-2.654l0.141-0.315l0.07-0.252c0-0.084,0.045-0.253,0.139-0.506
			l0.141-0.379l0.141-0.316c0.278-0.673,0.442-1.201,0.489-1.58l0.069-0.379v-0.316c0.046-0.084,0.068-0.23,0.068-0.441
			l-0.068-0.316c0.093-0.463,0.396-1.432,0.908-2.908c0.324-0.969,0.535-1.495,0.63-1.58c0.092-0.126,0.186-0.315,0.278-0.568
			c0.094-0.084,0.304-0.104,0.629-0.063c0.047,0,0.142-0.126,0.279-0.379c0.141-0.21,0.232-0.315,0.28-0.315
			c0.325,0.126,0.56,0.211,0.698,0.253c0.652,0.295,1.072,0.548,1.259,0.758c0.093,0.169,0.187,0.485,0.278,0.948v0.632v0.126
			l-0.068,0.253h0.068l-0.068,0.252l-0.07,0.126c0,0.042,0.023,0.042,0.07,0c0.045,0,0.068,0.021,0.068,0.062l-0.068,0.189
			c-0.047,0.042-0.07,0.106-0.07,0.189c-0.187,1.98-1.002,4.804-2.445,8.47v0.189c-0.047,0.085-0.117,0.211-0.211,0.379
			c-0.094,0.17-0.164,0.339-0.209,0.507l-0.141,0.315c-0.047,0.295-0.188,0.569-0.419,0.822l-0.21,0.379l-1.118,1.771
			c-0.14,0.126-0.233,0.253-0.28,0.379l-0.35,0.441l-1.258,2.086c-0.419,0.632-0.793,1.159-1.118,1.58
			c-0.327,0.421-0.642,0.79-0.944,1.106c-0.302,0.315-0.547,0.559-0.732,0.727c0.699,0.294,1.316,0.632,1.854,1.011
			c0.534,0.38,1.338,1.055,2.411,2.022l1.048,0.948c0.373,0.422,0.758,0.885,1.153,1.391s0.664,0.863,0.804,1.074l0.141,0.127
			l0.07,0.126l0.139,0.126l0.141,0.127c0.792,1.264,1.443,2.55,1.957,3.855l0.42,2.021c0,0.042,0.046,0.106,0.141,0.189l0.209,0.189
			c0.094,0.126,0.187,0.421,0.279,0.885c0.094,0.042,0.094,0.105,0,0.189s-0.117,0.168-0.07,0.252l0.07,0.127
			c0.047,0.043,0.07,0.105,0.07,0.189c0,0.085,0.021,0.169,0.068,0.253c0,0.253,0.022,0.441,0.07,0.568l-0.07,0.252h-0.209
			c0.231,0.17,0.326,0.422,0.279,0.76v0.441c0,0.295,0.047,0.695,0.141,1.201v0.189v0.127l0.07,0.126
			c0.045,0.126,0.045,0.23,0,0.314c-0.048,0.043-0.07,0.106-0.07,0.19c0,0.211,0.045,0.441,0.14,0.693
			c0,0.127,0.046,0.232,0.14,0.316l0.141,0.127l0.07,0.127l0.068,0.252c0,0.211-0.068,0.484-0.209,0.822l-0.279,0.44l-0.209,0.19
			l-0.631,0.062c-0.094,0-0.163,0.021-0.209,0.063l-0.07,0.063l-0.14,0.062l-2.308-0.127
			C248.766,60.037,248.721,60.016,248.721,60.016z"/>
		<path fill="#242424" d="M273.814,60.142c0,0-0.07-0.147-0.211-0.442c-0.14-0.295-0.232-0.442-0.279-0.442v-0.189v-0.126h-0.07
			v-0.126v-0.189h-0.068c-0.095,0-0.095-0.042,0-0.127v-0.188c-0.233-0.97-0.396-3.478-0.49-7.521l-0.139-0.127
			c0-0.21,0.021-0.379,0.068-0.506v-0.441c-0.094-0.253-0.139-0.526-0.139-0.821c0-0.168,0.021-0.316,0.068-0.442
			s0.069-0.294,0.069-0.505c0.094-0.76,0.142-1.496,0.142-2.213l0.069-0.506c0.045-0.168,0.069-0.357,0.069-0.568
			c0-0.633-0.024-1.18-0.069-1.644l-0.069-1.266v-1.264c-0.048-0.463-0.07-1.012-0.07-1.644c0-0.633,0.022-1.201,0.07-1.707v-1.453
			v-0.379c-0.048-0.043-0.07-0.147-0.07-0.316l0.07-0.379l0.069-0.253v-0.442c-0.048-0.084-0.069-0.189-0.069-0.315v-0.19
			c0-0.084,0.021-0.147,0.069-0.189V33.09c0.045-0.421,0.069-0.947,0.069-1.58h-0.069l0.069-0.506
			c0.046-0.336,0.068-1.348,0.068-3.034v-2.086l0.07-0.821v-0.758l-0.141-0.127c0-0.126,0.022-0.23,0.07-0.315
			c0.047-0.042,0.069-0.104,0.069-0.189l0.278-2.971c0-0.59,0.048-1.095,0.142-1.517c0-0.294,0.022-0.547,0.069-0.759
			c0-0.379,0.021-0.652,0.068-0.821l0.141-0.379v-0.189v-0.126h0.07v-0.188v-0.19l0.14-0.063h0.069
			c0.047-0.042,0.07-0.095,0.07-0.157c0-0.063,0.021-0.115,0.069-0.158c0-0.084,0.046-0.126,0.14-0.126l0.07-0.126v-0.063
			c0.186-0.042,0.42-0.084,0.699-0.126s0.44-0.021,0.488,0.063l0.279,0.126c0.186,0.042,0.325,0.147,0.419,0.315
			c0,0.042,0.022,0.042,0.07,0h0.141c0,0.085,0.022,0.148,0.069,0.189c0,0.085,0.021,0.126,0.068,0.126l0.351,0.379l0.278-0.188
			c0.047,0,0.047-0.021,0-0.063l0.42-0.189c0.84-0.463,1.398-0.736,1.679-0.821c0.792-0.168,1.678-0.253,2.655-0.253
			c1.443,0,2.981,0.295,4.613,0.885c0.84,0.338,1.398,0.611,1.678,0.822c0.979,0.717,2.027,1.792,3.146,3.224l0.141,0.189
			c0.045,0.126,0.104,0.231,0.175,0.315c0.069,0.084,0.128,0.148,0.175,0.189c0.046,0.042,0.07,0.104,0.07,0.188
			c0.932,2.022,1.443,4.193,1.537,6.51c0,0.676-0.209,1.813-0.629,3.413v0.253c0,0.17,0.022,0.296,0.069,0.38v0.188
			c-0.047,0.422-0.188,0.927-0.42,1.517c0,0.043-0.094,0.148-0.278,0.316c-0.048,0.042-0.117,0.189-0.211,0.442v0.126
			c-0.466,0.97-0.769,1.517-0.908,1.644l-0.351,0.442l-0.139-0.063c0,0.338-0.28,0.759-0.841,1.265
			c-0.838,0.801-1.678,1.517-2.516,2.148l-0.279,0.189l-0.279,0.188c-0.141,0.127-0.279,0.212-0.419,0.254l-0.771,0.379
			l-0.629,0.189l-0.559,0.253l-0.42,0.126c-0.047,0.043-0.105,0.063-0.176,0.063c-0.069,0-0.129,0.021-0.174,0.062l-0.279,0.126
			l-0.629,0.253c-1.166,0.211-2.191,0.295-3.076,0.253c-0.699,0-1.281-0.042-1.747-0.126h-0.069
			c0.092,0.547,0.115,1.033,0.069,1.453c0,0.211-0.024,0.338-0.069,0.379c-0.095,0.086-0.141,0.232-0.141,0.443l0.141,0.126
			c-0.048,0.126-0.07,0.38-0.07,0.759v1.011l-0.141,0.442c-0.047-0.041-0.094-0.041-0.139,0c0.139,0.127,0.209,0.359,0.209,0.695
			l-0.07,1.644c-0.094,0.97-0.115,1.706-0.068,2.212v0.253v0.316c0,0.126,0.021,0.211,0.068,0.253v0.252v0.38l-0.068,0.379v0.442
			c0,0.465,0.021,0.822,0.068,1.074c0,0.127,0.023,0.231,0.07,0.315c0,0.169,0.07,0.379,0.21,0.633l0.069,0.252l0.069,0.634
			c0,0.506-0.069,1.137-0.209,1.896c-0.142,0.843-0.233,1.285-0.28,1.326l-0.209,0.443c0,0.084-0.209,0.126-0.63,0.126l-0.209,0.314
			l-0.141,0.316c-0.095-0.085-0.396-0.148-0.908-0.189c-0.653-0.084-1.119-0.188-1.397-0.315
			C273.883,60.184,273.814,60.142,273.814,60.142z M278.216,40.295c0.142,0.043,0.304,0.063,0.49,0.063h0.14l0.141,0.063
			c0-0.042,0.022-0.063,0.07-0.063h0.14l0.14,0.063v-0.063h0.141c0.045,0.043,0.115,0.063,0.209,0.063
			c2.422-0.38,4.356-1.284,5.802-2.718l0.069-0.126c0-0.042,0.07-0.126,0.211-0.253c0.186-0.21,0.303-0.421,0.35-0.632
			c0.046-0.126,0.163-0.316,0.35-0.569l0.211-0.315l0.838-1.58l0.35-0.886c0.326-1.011,0.49-2.611,0.49-4.804l-0.07-1.327
			c0-0.59-0.023-1.012-0.07-1.264l-0.209-0.506v-0.316v-0.188c0-0.168-0.023-0.294-0.07-0.379l-0.14-0.379
			c-0.048-0.042-0.048-0.085,0-0.127v-0.126c-0.048-0.252-0.164-0.632-0.351-1.138h-0.068l-0.07-0.315
			c-0.326-0.97-0.934-1.98-1.817-3.034c-0.373-0.463-0.605-0.716-0.698-0.759l-0.141-0.063c-0.047,0-0.094-0.032-0.141-0.095
			c-0.047-0.063-0.068-0.116-0.068-0.158c-0.793-0.463-1.422-0.768-1.889-0.917c-0.466-0.147-1.025-0.242-1.678-0.284
			c-0.419,0-0.814,0.021-1.188,0.063l-0.908,0.062c-0.096,0-0.164,0.021-0.211,0.063l-0.139,0.062l-0.07-0.062h-0.142l-0.139,0.062
			c-0.047,0.042-0.095,0.042-0.142,0h-0.139c-0.048,0.042-0.117,0.063-0.211,0.063l0.28,0.505c0.093,0.844,0.14,1.918,0.14,3.224
			c0,0.759-0.023,1.308-0.07,1.645l-0.139,1.707c0,0.338,0.021,0.632,0.069,0.885v0.885l-0.069,2.275l-0.07,1.391
			c0,0.211,0.012,0.358,0.035,0.442c0.022,0.085,0.035,0.147,0.035,0.189v0.189v0.315c0,0.085,0.021,0.148,0.069,0.19v0.252
			c0.046,0.211,0.069,1.328,0.069,3.35l-0.069,3.098c0,0.59-0.069,1.369-0.21,2.338C277.75,40.317,277.938,40.295,278.216,40.295z"
			/>
		<path fill="#242424" d="M372.508,18.615c-0.048,0.085-0.14,0.158-0.28,0.221c-0.139,0.063-0.232,0.096-0.278,0.096h-0.141h-0.068
			v0.062h-0.142h-0.069c0,0.042-0.023,0.042-0.069,0h-0.14c-0.56,0.126-2.052,0.168-4.475,0.126l-0.068,0.063
			c-0.095,0-0.164-0.021-0.211-0.063h-0.35h-0.21c-0.047,0.042-0.117,0.063-0.209,0.063c-0.141,0-0.233-0.021-0.28-0.063h-0.35
			c-0.14-0.041-0.349-0.062-0.629-0.062c-0.327,0-0.536-0.021-0.629-0.063c-0.141,0-0.257-0.021-0.351-0.062h-0.35
			c-0.327,0-0.606,0.021-0.839,0.062c0.093,0.927,0.141,2.423,0.141,4.487l-0.069,1.644c0,0.338,0.021,0.632,0.069,0.885v0.822
			v2.212c0,1.224,0.022,1.875,0.069,1.959v0.19l-0.069,0.252l0.14,0.506c0.047,0.464,0.069,1.644,0.069,3.54v2.591l-0.209,3.099
			c0,0.085,0.045,0.295,0.14,0.633l0.141,0.188c0.045,0.211,0.069,0.674,0.069,1.392l-0.141,0.379
			c-0.047,0.042-0.069,0.168-0.069,0.379l0.069,0.188v0.695v1.012l-0.14,0.442h-0.14c0.093,0.169,0.14,0.464,0.14,0.885
			c0,0.675-0.024,1.159-0.069,1.454c0,0.252-0.013,0.56-0.035,0.916c-0.023,0.358-0.013,0.79,0.035,1.296v0.253v0.379
			c0,0.085,0.022,0.148,0.069,0.189v0.253v0.38l-0.069,0.379v0.506c0,0.464,0.022,0.821,0.069,1.074
			c0,0.127,0.021,0.232,0.069,0.316c0,0.211,0.069,0.44,0.21,0.694l0.068,0.252c0.047,0.507-0.022,1.412-0.209,2.72
			c-0.14,0.885-0.233,1.349-0.278,1.391c-0.095,0.252-0.142,0.4-0.142,0.441c-0.094,0.086-0.326,0.127-0.698,0.127l-0.21,0.315
			l-0.14,0.315c-0.188,0-0.548-0.054-1.083-0.157c-0.537-0.105-0.944-0.223-1.224-0.348c-0.096-0.042-0.233-0.254-0.419-0.633
			l-0.212-0.507v-0.188v-0.127h-0.068c-0.047,0-0.069-0.041-0.069-0.126l0.069-0.189h-0.069h-0.07v-0.188v-0.126
			c-0.278-1.35-0.442-3.939-0.488-7.775l-0.069-0.126c0-0.21,0.022-0.38,0.069-0.505c0-0.211-0.024-0.358-0.069-0.443v-0.379
			c-0.048-0.127-0.07-0.272-0.07-0.441c0-0.168,0.022-0.316,0.07-0.442c0.045-0.127,0.069-0.273,0.069-0.443
			c0-0.799,0.046-1.537,0.14-2.211l0.07-0.506v-0.569c0-0.589-0.024-1.115-0.07-1.579l-0.07-1.2l-0.068-1.266
			c-0.047-0.464-0.069-0.988-0.069-1.58c0-0.632,0.022-1.179,0.069-1.644v-1.391v-0.379c-0.047-0.042-0.069-0.126-0.069-0.253
			c0-0.168,0.022-0.294,0.069-0.379V34.67v-0.441v-0.316c-0.047-0.042-0.069-0.104-0.069-0.189c0-0.083,0.022-0.147,0.069-0.189
			v-0.063c0.046-0.421,0.068-0.947,0.068-1.579h-0.068h-0.069l0.139-0.443c0.048-0.463,0.06-1,0.035-1.611
			c-0.022-0.609-0.035-1.253-0.035-1.928c-0.047-0.252-0.068-0.716-0.068-1.39v-0.822v-0.695l-0.069-0.126
			c0-0.126,0.022-0.23,0.069-0.315V24.37c0-0.759,0.068-1.728,0.21-2.908l0.068-0.694v-0.822l0.07-0.885h-0.14h-0.21
			c-0.096,0-0.164-0.021-0.21-0.063h-0.141c-0.187,0-0.35,0.021-0.488,0.063h-0.07c-0.047,0-0.069-0.021-0.069-0.063h-0.14h-0.909
			v0.063l-0.21-0.063c-0.139-0.042-0.466-0.062-0.979-0.062c-0.699,0-1.306,0.021-1.816,0.062h-0.49h-0.35l-0.069,0.063l-0.14-0.063
			h-0.142c-0.604,0-1.116-0.021-1.537-0.062c-0.047-0.042-0.163-0.063-0.35-0.063h-0.35l-0.771-0.126
			c-0.139,0-0.209-0.021-0.209-0.062c-0.047,0-0.069,0.021-0.069,0.062l-0.141-0.062h-0.069c-0.047,0-0.069-0.021-0.069-0.063
			s-0.023-0.062-0.07-0.062c-0.139-0.083-0.209-0.147-0.209-0.189h-0.07c-0.232-0.337-0.256-0.547-0.069-0.632
			c0.047,0,0.094-0.063,0.141-0.19c0-0.084,0.023-0.146,0.07-0.188c0.045,0,0.045-0.021,0-0.063
			c0.092-0.084,0.162-0.126,0.209-0.126l0.21-0.253c0.186-0.294,0.325-0.441,0.419-0.441c0.652-0.084,1.469-0.126,2.447-0.126
			c0.278,0.042,0.582,0.062,0.907,0.062c0.187,0,0.351-0.021,0.489-0.062h0.419h1.189h1.188h0.142h0.139l0.141-0.063h0.14
			c0.466,0,0.861-0.021,1.188-0.062h1.397h1.048l1.889,0.126c0.045,0.042,0.187,0.021,0.419-0.063l0.069-0.062
			c0.186-0.085,0.466-0.085,0.84,0h0.279c0.045,0.042,0.115,0.062,0.209,0.062h0.069h0.489h0.561l0.278,0.063v0.126
			c0.141-0.126,0.42-0.168,0.84-0.126c0.839,0.085,1.468,0.104,1.888,0.062h0.209c0.093,0.042,0.162,0.042,0.21,0h0.14h0.141h0.21
			c0.046,0.042,0.114,0.063,0.209,0.063c0.326,0.042,0.651,0.042,0.979,0c0.094,0,0.164-0.021,0.211-0.063h0.14
			c0.094,0,0.163-0.021,0.211-0.062l0.139-0.063h0.28c0.325,0,0.745,0.063,1.258,0.19c0.513,0.042,0.792,0.104,0.839,0.188
			c0.046,0,0.105,0.011,0.175,0.032c0.069,0.021,0.104,0.158,0.104,0.411l0.141,0.126l0.209,0.126L372.508,18.615z"/>
	</g>
	<g>
		<path fill="#333333" d="M305.913,16.39c3.808-3.084,8.467-5.217,13.669-5.968c0.013-0.002,0.026-0.003,0.039-0.005
			c0.184-0.823,0.128-1.706-0.232-2.54c-0.908-2.101-3.348-3.067-5.448-2.159l-7.606,3.291c-2.102,0.909-3.068,3.349-2.16,5.449
			C304.542,15.308,305.167,15.96,305.913,16.39z"/>
		<path fill="#333333" d="M343.302,58.902c-3.647,3.272-8.191,5.641-13.35,6.655c-0.013,0.003-0.026,0.004-0.038,0.007
			c-0.142,0.831-0.041,1.71,0.36,2.524c1.015,2.052,3.499,2.895,5.552,1.88l7.429-3.673c2.053-1.014,2.896-3.5,1.881-5.551
			C344.726,59.914,344.067,59.294,343.302,58.902z"/>
	</g>
	<g>
		<path fill="#242424" d="M350.283,35.956c1.278,14.686-9.625,27.732-24.404,28.988c-14.727,1.25-27.684-9.661-28.955-24.418
			c-1.268-14.7,9.68-27.695,24.384-28.953C336.05,10.312,349.009,21.219,350.283,35.956z M342.453,45.098
			c-4.707,11.425-17.705,15.567-27.697,10.312c-5.687-2.988-9.229-7.702-10.418-14.01c-1.193-6.313,0.477-11.947,4.58-16.877
			c-5.348,5.261-7.744,14.062-4.145,22.281c3.75,8.564,12.815,13.506,22.233,11.787C335.212,57.101,340.753,50.837,342.453,45.098z"
			/>
		<path fill="#FFFFFF" d="M342.453,45.098c-1.699,5.738-7.24,12.003-15.445,13.496c-9.416,1.719-18.482-3.223-22.232-11.787
			c-3.602-8.22-1.202-17.021,4.146-22.281c-4.104,4.93-5.774,10.562-4.58,16.877c1.188,6.308,4.73,11.021,10.416,14.01
			C324.748,60.666,337.746,56.522,342.453,45.098z"/>
	</g>
</g>
</svg>
